<?xml version="1.0" encoding="UTF-8" standalone="no"?>
<!DOCTYPE svg PUBLIC "-//W3C//DTD SVG 1.1//EN"
 "http://www.w3.org/Graphics/SVG/1.1/DTD/svg11.dtd">
<!-- Generated by graphviz version 2.47.0 (20210316.0004)
 -->
<!-- Title: dependencies Pages: 1 -->
<svg width="1689pt" height="284pt"
 viewBox="0.00 0.00 1689.00 284.00" xmlns="http://www.w3.org/2000/svg" xmlns:xlink="http://www.w3.org/1999/xlink">
<g id="graph0" class="graph" transform="scale(1 1) rotate(0) translate(4 280)">
<title>dependencies</title>
<polygon fill="white" stroke="transparent" points="-4,4 -4,-280 1685,-280 1685,4 -4,4"/>
<text text-anchor="start" x="819.51" y="-42.4" font-family="Times-12" font-weight="bold" font-size="14.00">Legend</text>
<polygon fill="#ffffb3" stroke="transparent" points="606.5,-10 606.5,-30 626.5,-30 626.5,-10 606.5,-10"/>
<text text-anchor="start" x="630.13" y="-15.4" font-family="Times-12" font-size="14.00"> &#160;Declarations</text>
<polygon fill="#8dd3c7" stroke="transparent" points="719.5,-10 719.5,-30 739.5,-30 739.5,-10 719.5,-10"/>
<text text-anchor="start" x="743.23" y="-15.4" font-family="Times-12" font-size="14.00"> &#160;Module</text>
<polygon fill="#80b1d3" stroke="transparent" points="805.5,-10 805.5,-30 825.5,-30 825.5,-10 805.5,-10"/>
<text text-anchor="start" x="829.28" y="-15.4" font-family="Times-12" font-size="14.00"> &#160;Bootstrap</text>
<polygon fill="#fdb462" stroke="transparent" points="902.5,-10 902.5,-30 922.5,-30 922.5,-10 902.5,-10"/>
<text text-anchor="start" x="926.17" y="-15.4" font-family="Times-12" font-size="14.00"> &#160;Providers</text>
<polygon fill="#fb8072" stroke="transparent" points="998.5,-10 998.5,-30 1018.5,-30 1018.5,-10 998.5,-10"/>
<text text-anchor="start" x="1022.23" y="-15.4" font-family="Times-12" font-size="14.00"> &#160;Exports</text>
<g id="clust1" class="cluster">
<title>cluster_ConversationModule</title>
<polygon fill="none" stroke="black" stroke-dasharray="1,5" points="8,-70 8,-268 1673,-268 1673,-70 8,-70"/>
</g>
<g id="clust4" class="cluster">
<title>cluster_ConversationModule_exports</title>
<polygon fill="none" stroke="black" points="921,-208 921,-260 1235,-260 1235,-208 921,-208"/>
</g>
<g id="clust3" class="cluster">
<title>cluster_ConversationModule_imports</title>
<polygon fill="none" stroke="black" points="1435,-78 1435,-130 1665,-130 1665,-78 1435,-78"/>
</g>
<g id="clust6" class="cluster">
<title>cluster_ConversationModule_providers</title>
<polygon fill="none" stroke="black" points="16,-78 16,-130 1427,-130 1427,-78 16,-78"/>
</g>
<!-- CacheModule -->
<g id="node1" class="node">
<title>CacheModule</title>
<polygon fill="#8dd3c7" stroke="black" points="1657.03,-122 1654.03,-126 1633.03,-126 1630.03,-122 1562.97,-122 1562.97,-86 1657.03,-86 1657.03,-122"/>
<text text-anchor="middle" x="1610" y="-99.8" font-family="Times,serif" font-size="14.00">CacheModule</text>
</g>
<!-- ConversationModule -->
<g id="node3" class="node">
<title>ConversationModule</title>
<polygon fill="#8dd3c7" stroke="black" points="1143.2,-187 1140.2,-191 1119.2,-191 1116.2,-187 1008.8,-187 1008.8,-151 1143.2,-151 1143.2,-187"/>
<text text-anchor="middle" x="1076" y="-164.8" font-family="Times,serif" font-size="14.00">ConversationModule</text>
</g>
<!-- CacheModule&#45;&gt;ConversationModule -->
<g id="edge1" class="edge">
<title>CacheModule&#45;&gt;ConversationModule</title>
<path fill="none" stroke="black" d="M1610,-122.29C1610,-144.21 1610,-178 1610,-178 1610,-178 1153.36,-178 1153.36,-178"/>
<polygon fill="black" stroke="black" points="1153.36,-174.5 1143.36,-178 1153.36,-181.5 1153.36,-174.5"/>
</g>
<!-- StorageModule -->
<g id="node2" class="node">
<title>StorageModule</title>
<polygon fill="#8dd3c7" stroke="black" points="1545.31,-122 1542.31,-126 1521.31,-126 1518.31,-122 1442.69,-122 1442.69,-86 1545.31,-86 1545.31,-122"/>
<text text-anchor="middle" x="1494" y="-99.8" font-family="Times,serif" font-size="14.00">StorageModule</text>
</g>
<!-- StorageModule&#45;&gt;ConversationModule -->
<g id="edge2" class="edge">
<title>StorageModule&#45;&gt;ConversationModule</title>
<path fill="none" stroke="black" d="M1494,-122.11C1494,-141.34 1494,-169 1494,-169 1494,-169 1153.16,-169 1153.16,-169"/>
<polygon fill="black" stroke="black" points="1153.16,-165.5 1143.16,-169 1153.16,-172.5 1153.16,-165.5"/>
</g>
<!-- ConversationGateway  -->
<g id="node4" class="node">
<title>ConversationGateway </title>
<polygon fill="#fb8072" stroke="black" points="1226.9,-252 1083.1,-252 1083.1,-216 1226.9,-216 1226.9,-252"/>
<text text-anchor="middle" x="1155" y="-229.8" font-family="Times,serif" font-size="14.00">ConversationGateway </text>
</g>
<!-- ConversationModule&#45;&gt;ConversationGateway  -->
<g id="edge3" class="edge">
<title>ConversationModule&#45;&gt;ConversationGateway </title>
<path fill="none" stroke="black" stroke-dasharray="5,2" d="M1113.08,-187.11C1113.08,-187.11 1113.08,-205.99 1113.08,-205.99"/>
<polygon fill="black" stroke="black" points="1109.58,-205.99 1113.08,-215.99 1116.58,-205.99 1109.58,-205.99"/>
</g>
<!-- ConversationService  -->
<g id="node5" class="node">
<title>ConversationService </title>
<polygon fill="#fb8072" stroke="black" points="1065.13,-252 928.87,-252 928.87,-216 1065.13,-216 1065.13,-252"/>
<text text-anchor="middle" x="997" y="-229.8" font-family="Times,serif" font-size="14.00">ConversationService </text>
</g>
<!-- ConversationModule&#45;&gt;ConversationService  -->
<g id="edge4" class="edge">
<title>ConversationModule&#45;&gt;ConversationService </title>
<path fill="none" stroke="black" stroke-dasharray="5,2" d="M1036.98,-187.11C1036.98,-187.11 1036.98,-205.99 1036.98,-205.99"/>
<polygon fill="black" stroke="black" points="1033.48,-205.99 1036.98,-215.99 1040.48,-205.99 1033.48,-205.99"/>
</g>
<!-- ConversationService -->
<g id="node6" class="node">
<title>ConversationService</title>
<ellipse fill="#fdb462" stroke="black" cx="1328" cy="-104" rx="91.47" ry="18"/>
<text text-anchor="middle" x="1328" y="-99.8" font-family="Times,serif" font-size="14.00">ConversationService</text>
</g>
<!-- ConversationService&#45;&gt;ConversationModule -->
<g id="edge5" class="edge">
<title>ConversationService&#45;&gt;ConversationModule</title>
<path fill="none" stroke="black" d="M1328,-122.03C1328,-138.4 1328,-160 1328,-160 1328,-160 1153.2,-160 1153.2,-160"/>
<polygon fill="black" stroke="black" points="1153.2,-156.5 1143.2,-160 1153.2,-163.5 1153.2,-156.5"/>
</g>
<!-- TypeOrmConversationRepository -->
<g id="node7" class="node">
<title>TypeOrmConversationRepository</title>
<ellipse fill="#fdb462" stroke="black" cx="1076" cy="-104" rx="142.4" ry="18"/>
<text text-anchor="middle" x="1076" y="-99.8" font-family="Times,serif" font-size="14.00">TypeOrmConversationRepository</text>
</g>
<!-- TypeOrmConversationRepository&#45;&gt;ConversationModule -->
<g id="edge6" class="edge">
<title>TypeOrmConversationRepository&#45;&gt;ConversationModule</title>
<path fill="none" stroke="black" d="M1076,-122.11C1076,-122.11 1076,-140.99 1076,-140.99"/>
<polygon fill="black" stroke="black" points="1072.5,-140.99 1076,-150.99 1079.5,-140.99 1072.5,-140.99"/>
</g>
<!-- TypeOrmMessageAttachmentRepository -->
<g id="node8" class="node">
<title>TypeOrmMessageAttachmentRepository</title>
<ellipse fill="#fdb462" stroke="black" cx="746" cy="-104" rx="169.58" ry="18"/>
<text text-anchor="middle" x="746" y="-99.8" font-family="Times,serif" font-size="14.00">TypeOrmMessageAttachmentRepository</text>
</g>
<!-- TypeOrmMessageAttachmentRepository&#45;&gt;ConversationModule -->
<g id="edge7" class="edge">
<title>TypeOrmMessageAttachmentRepository&#45;&gt;ConversationModule</title>
<path fill="none" stroke="black" d="M746,-122.03C746,-138.4 746,-160 746,-160 746,-160 998.82,-160 998.82,-160"/>
<polygon fill="black" stroke="black" points="998.82,-163.5 1008.82,-160 998.82,-156.5 998.82,-163.5"/>
</g>
<!-- TypeOrmMessageRepository -->
<g id="node9" class="node">
<title>TypeOrmMessageRepository</title>
<ellipse fill="#fdb462" stroke="black" cx="433" cy="-104" rx="124.98" ry="18"/>
<text text-anchor="middle" x="433" y="-99.8" font-family="Times,serif" font-size="14.00">TypeOrmMessageRepository</text>
</g>
<!-- TypeOrmMessageRepository&#45;&gt;ConversationModule -->
<g id="edge8" class="edge">
<title>TypeOrmMessageRepository&#45;&gt;ConversationModule</title>
<path fill="none" stroke="black" d="M433,-122.11C433,-141.34 433,-169 433,-169 433,-169 998.71,-169 998.71,-169"/>
<polygon fill="black" stroke="black" points="998.71,-172.5 1008.71,-169 998.71,-165.5 998.71,-172.5"/>
</g>
<!-- TypeOrmParticipantRepository -->
<g id="node10" class="node">
<title>TypeOrmParticipantRepository</title>
<ellipse fill="#fdb462" stroke="black" cx="157" cy="-104" rx="132.58" ry="18"/>
<text text-anchor="middle" x="157" y="-99.8" font-family="Times,serif" font-size="14.00">TypeOrmParticipantRepository</text>
</g>
<!-- TypeOrmParticipantRepository&#45;&gt;ConversationModule -->
<g id="edge9" class="edge">
<title>TypeOrmParticipantRepository&#45;&gt;ConversationModule</title>
<path fill="none" stroke="black" d="M157,-122.29C157,-144.21 157,-178 157,-178 157,-178 998.8,-178 998.8,-178"/>
<polygon fill="black" stroke="black" points="998.8,-181.5 1008.8,-178 998.8,-174.5 998.8,-181.5"/>
</g>
</g>
</svg>
