<?xml version="1.0" encoding="UTF-8" standalone="no"?>
<!DOCTYPE svg PUBLIC "-//W3C//DTD SVG 1.1//EN"
 "http://www.w3.org/Graphics/SVG/1.1/DTD/svg11.dtd">
<!-- Generated by graphviz version 2.47.0 (20210316.0004)
 -->
<!-- Title: dependencies Pages: 1 -->
<svg width="1285pt" height="284pt"
 viewBox="0.00 0.00 1285.00 284.00" xmlns="http://www.w3.org/2000/svg" xmlns:xlink="http://www.w3.org/1999/xlink">
<g id="graph0" class="graph" transform="scale(1 1) rotate(0) translate(4 280)">
<title>dependencies</title>
<polygon fill="white" stroke="transparent" points="-4,4 -4,-280 1281,-280 1281,4 -4,4"/>
<text text-anchor="start" x="617.51" y="-42.4" font-family="Times-12" font-weight="bold" font-size="14.00">Legend</text>
<polygon fill="#ffffb3" stroke="transparent" points="404.5,-10 404.5,-30 424.5,-30 424.5,-10 404.5,-10"/>
<text text-anchor="start" x="428.13" y="-15.4" font-family="Times-12" font-size="14.00"> &#160;Declarations</text>
<polygon fill="#8dd3c7" stroke="transparent" points="517.5,-10 517.5,-30 537.5,-30 537.5,-10 517.5,-10"/>
<text text-anchor="start" x="541.23" y="-15.4" font-family="Times-12" font-size="14.00"> &#160;Module</text>
<polygon fill="#80b1d3" stroke="transparent" points="603.5,-10 603.5,-30 623.5,-30 623.5,-10 603.5,-10"/>
<text text-anchor="start" x="627.28" y="-15.4" font-family="Times-12" font-size="14.00"> &#160;Bootstrap</text>
<polygon fill="#fdb462" stroke="transparent" points="700.5,-10 700.5,-30 720.5,-30 720.5,-10 700.5,-10"/>
<text text-anchor="start" x="724.17" y="-15.4" font-family="Times-12" font-size="14.00"> &#160;Providers</text>
<polygon fill="#fb8072" stroke="transparent" points="796.5,-10 796.5,-30 816.5,-30 816.5,-10 796.5,-10"/>
<text text-anchor="start" x="820.23" y="-15.4" font-family="Times-12" font-size="14.00"> &#160;Exports</text>
<g id="clust1" class="cluster">
<title>cluster_PushNotificationModule</title>
<polygon fill="none" stroke="black" stroke-dasharray="1,5" points="8,-70 8,-268 1269,-268 1269,-70 8,-70"/>
</g>
<g id="clust6" class="cluster">
<title>cluster_PushNotificationModule_providers</title>
<polygon fill="none" stroke="black" points="16,-78 16,-130 1261,-130 1261,-78 16,-78"/>
</g>
<g id="clust4" class="cluster">
<title>cluster_PushNotificationModule_exports</title>
<polygon fill="none" stroke="black" points="581,-208 581,-260 831,-260 831,-208 581,-208"/>
</g>
<!-- PushService  -->
<g id="node1" class="node">
<title>PushService </title>
<polygon fill="#fb8072" stroke="black" points="823.21,-252 734.79,-252 734.79,-216 823.21,-216 823.21,-252"/>
<text text-anchor="middle" x="779" y="-229.8" font-family="Times,serif" font-size="14.00">PushService </text>
</g>
<!-- UserDeviceService  -->
<g id="node2" class="node">
<title>UserDeviceService </title>
<polygon fill="#fb8072" stroke="black" points="716.55,-252 589.45,-252 589.45,-216 716.55,-216 716.55,-252"/>
<text text-anchor="middle" x="653" y="-229.8" font-family="Times,serif" font-size="14.00">UserDeviceService </text>
</g>
<!-- PushNotificationModule -->
<g id="node3" class="node">
<title>PushNotificationModule</title>
<polygon fill="#8dd3c7" stroke="black" points="793.43,-187 790.43,-191 769.43,-191 766.43,-187 638.57,-187 638.57,-151 793.43,-151 793.43,-187"/>
<text text-anchor="middle" x="716" y="-164.8" font-family="Times,serif" font-size="14.00">PushNotificationModule</text>
</g>
<!-- PushNotificationModule&#45;&gt;PushService  -->
<g id="edge1" class="edge">
<title>PushNotificationModule&#45;&gt;PushService </title>
<path fill="none" stroke="black" stroke-dasharray="5,2" d="M763.93,-187.11C763.93,-187.11 763.93,-205.99 763.93,-205.99"/>
<polygon fill="black" stroke="black" points="760.43,-205.99 763.93,-215.99 767.43,-205.99 760.43,-205.99"/>
</g>
<!-- PushNotificationModule&#45;&gt;UserDeviceService  -->
<g id="edge2" class="edge">
<title>PushNotificationModule&#45;&gt;UserDeviceService </title>
<path fill="none" stroke="black" stroke-dasharray="5,2" d="M677.78,-187.11C677.78,-187.11 677.78,-205.99 677.78,-205.99"/>
<polygon fill="black" stroke="black" points="674.28,-205.99 677.78,-215.99 681.28,-205.99 674.28,-205.99"/>
</g>
<!-- FcmDispatcher -->
<g id="node4" class="node">
<title>FcmDispatcher</title>
<ellipse fill="#fdb462" stroke="black" cx="1183" cy="-104" rx="70.06" ry="18"/>
<text text-anchor="middle" x="1183" y="-99.8" font-family="Times,serif" font-size="14.00">FcmDispatcher</text>
</g>
<!-- FcmDispatcher&#45;&gt;PushNotificationModule -->
<g id="edge3" class="edge">
<title>FcmDispatcher&#45;&gt;PushNotificationModule</title>
<path fill="none" stroke="black" d="M1206.34,-121.16C1206.34,-143.02 1206.34,-178 1206.34,-178 1206.34,-178 803.43,-178 803.43,-178"/>
<polygon fill="black" stroke="black" points="803.43,-174.5 793.43,-178 803.43,-181.5 803.43,-174.5"/>
</g>
<!-- FcmDispatcher&#45;&gt;PushNotificationModule -->
<g id="edge4" class="edge">
<title>FcmDispatcher&#45;&gt;PushNotificationModule</title>
<path fill="none" stroke="black" d="M1159.66,-121.08C1159.66,-140.34 1159.66,-169 1159.66,-169 1159.66,-169 803.28,-169 803.28,-169"/>
<polygon fill="black" stroke="black" points="803.28,-165.5 793.28,-169 803.28,-172.5 803.28,-165.5"/>
</g>
<!-- OutboxPushService -->
<g id="node5" class="node">
<title>OutboxPushService</title>
<ellipse fill="#fdb462" stroke="black" cx="1007" cy="-104" rx="87.98" ry="18"/>
<text text-anchor="middle" x="1007" y="-99.8" font-family="Times,serif" font-size="14.00">OutboxPushService</text>
</g>
<!-- OutboxPushService&#45;&gt;PushNotificationModule -->
<g id="edge5" class="edge">
<title>OutboxPushService&#45;&gt;PushNotificationModule</title>
<path fill="none" stroke="black" d="M1007,-122.03C1007,-138.4 1007,-160 1007,-160 1007,-160 803.22,-160 803.22,-160"/>
<polygon fill="black" stroke="black" points="803.22,-156.5 793.22,-160 803.22,-163.5 803.22,-156.5"/>
</g>
<!-- PushRendererService -->
<g id="node6" class="node">
<title>PushRendererService</title>
<ellipse fill="#fdb462" stroke="black" cx="807" cy="-104" rx="94.32" ry="18"/>
<text text-anchor="middle" x="807" y="-99.8" font-family="Times,serif" font-size="14.00">PushRendererService</text>
</g>
<!-- PushRendererService&#45;&gt;PushNotificationModule -->
<g id="edge6" class="edge">
<title>PushRendererService&#45;&gt;PushNotificationModule</title>
<path fill="none" stroke="black" d="M753.03,-118.75C753.03,-118.75 753.03,-140.59 753.03,-140.59"/>
<polygon fill="black" stroke="black" points="749.53,-140.59 753.03,-150.59 756.53,-140.59 749.53,-140.59"/>
</g>
<!-- PushScheduler -->
<g id="node7" class="node">
<title>PushScheduler</title>
<ellipse fill="#fdb462" stroke="black" cx="626" cy="-104" rx="68.36" ry="18"/>
<text text-anchor="middle" x="626" y="-99.8" font-family="Times,serif" font-size="14.00">PushScheduler</text>
</g>
<!-- PushScheduler&#45;&gt;PushNotificationModule -->
<g id="edge7" class="edge">
<title>PushScheduler&#45;&gt;PushNotificationModule</title>
<path fill="none" stroke="black" d="M666.61,-118.75C666.61,-118.75 666.61,-140.59 666.61,-140.59"/>
<polygon fill="black" stroke="black" points="663.11,-140.59 666.61,-150.59 670.11,-140.59 663.11,-140.59"/>
</g>
<!-- PushService -->
<g id="node8" class="node">
<title>PushService</title>
<ellipse fill="#fdb462" stroke="black" cx="481" cy="-104" rx="58.55" ry="18"/>
<text text-anchor="middle" x="481" y="-99.8" font-family="Times,serif" font-size="14.00">PushService</text>
</g>
<!-- PushService&#45;&gt;PushNotificationModule -->
<g id="edge8" class="edge">
<title>PushService&#45;&gt;PushNotificationModule</title>
<path fill="none" stroke="black" d="M481,-122.03C481,-138.4 481,-160 481,-160 481,-160 628.73,-160 628.73,-160"/>
<polygon fill="black" stroke="black" points="628.73,-163.5 638.73,-160 628.73,-156.5 628.73,-163.5"/>
</g>
<!-- PushTemplateService -->
<g id="node9" class="node">
<title>PushTemplateService</title>
<ellipse fill="#fdb462" stroke="black" cx="309" cy="-104" rx="95.48" ry="18"/>
<text text-anchor="middle" x="309" y="-99.8" font-family="Times,serif" font-size="14.00">PushTemplateService</text>
</g>
<!-- PushTemplateService&#45;&gt;PushNotificationModule -->
<g id="edge9" class="edge">
<title>PushTemplateService&#45;&gt;PushNotificationModule</title>
<path fill="none" stroke="black" d="M309,-122.11C309,-141.34 309,-169 309,-169 309,-169 628.49,-169 628.49,-169"/>
<polygon fill="black" stroke="black" points="628.49,-172.5 638.49,-169 628.49,-165.5 628.49,-172.5"/>
</g>
<!-- UserDeviceService -->
<g id="node10" class="node">
<title>UserDeviceService</title>
<ellipse fill="#fdb462" stroke="black" cx="110" cy="-104" rx="85.63" ry="18"/>
<text text-anchor="middle" x="110" y="-99.8" font-family="Times,serif" font-size="14.00">UserDeviceService</text>
</g>
<!-- UserDeviceService&#45;&gt;PushNotificationModule -->
<g id="edge10" class="edge">
<title>UserDeviceService&#45;&gt;PushNotificationModule</title>
<path fill="none" stroke="black" d="M110,-122.29C110,-144.21 110,-178 110,-178 110,-178 628.63,-178 628.63,-178"/>
<polygon fill="black" stroke="black" points="628.63,-181.5 638.63,-178 628.63,-174.5 628.63,-181.5"/>
</g>
</g>
</svg>
