<?xml version="1.0" encoding="UTF-8" standalone="no"?>
<!DOCTYPE svg PUBLIC "-//W3C//DTD SVG 1.1//EN"
 "http://www.w3.org/Graphics/SVG/1.1/DTD/svg11.dtd">
<!-- Generated by graphviz version 2.47.0 (20210316.0004)
 -->
<!-- Title: dependencies Pages: 1 -->
<svg width="504pt" height="284pt"
 viewBox="0.00 0.00 504.00 284.00" xmlns="http://www.w3.org/2000/svg" xmlns:xlink="http://www.w3.org/1999/xlink">
<g id="graph0" class="graph" transform="scale(1 1) rotate(0) translate(4 280)">
<title>dependencies</title>
<polygon fill="white" stroke="transparent" points="-4,4 -4,-280 500,-280 500,4 -4,4"/>
<text text-anchor="start" x="227.01" y="-42.4" font-family="Times-12" font-weight="bold" font-size="14.00">Legend</text>
<polygon fill="#ffffb3" stroke="transparent" points="14,-10 14,-30 34,-30 34,-10 14,-10"/>
<text text-anchor="start" x="37.63" y="-15.4" font-family="Times-12" font-size="14.00"> &#160;Declarations</text>
<polygon fill="#8dd3c7" stroke="transparent" points="127,-10 127,-30 147,-30 147,-10 127,-10"/>
<text text-anchor="start" x="150.73" y="-15.4" font-family="Times-12" font-size="14.00"> &#160;Module</text>
<polygon fill="#80b1d3" stroke="transparent" points="213,-10 213,-30 233,-30 233,-10 213,-10"/>
<text text-anchor="start" x="236.78" y="-15.4" font-family="Times-12" font-size="14.00"> &#160;Bootstrap</text>
<polygon fill="#fdb462" stroke="transparent" points="310,-10 310,-30 330,-30 330,-10 310,-10"/>
<text text-anchor="start" x="333.67" y="-15.4" font-family="Times-12" font-size="14.00"> &#160;Providers</text>
<polygon fill="#fb8072" stroke="transparent" points="406,-10 406,-30 426,-30 426,-10 406,-10"/>
<text text-anchor="start" x="429.73" y="-15.4" font-family="Times-12" font-size="14.00"> &#160;Exports</text>
<g id="clust1" class="cluster">
<title>cluster_UserModule</title>
<polygon fill="none" stroke="black" stroke-dasharray="1,5" points="93,-70 93,-268 403,-268 403,-70 93,-70"/>
</g>
<g id="clust4" class="cluster">
<title>cluster_UserModule_exports</title>
<polygon fill="none" stroke="black" points="121,-208 121,-260 351,-260 351,-208 121,-208"/>
</g>
<g id="clust6" class="cluster">
<title>cluster_UserModule_providers</title>
<polygon fill="none" stroke="black" points="101,-78 101,-130 395,-130 395,-78 101,-78"/>
</g>
<!-- UserRepository  -->
<g id="node1" class="node">
<title>UserRepository </title>
<polygon fill="#fb8072" stroke="black" points="342.86,-252 235.14,-252 235.14,-216 342.86,-216 342.86,-252"/>
<text text-anchor="middle" x="289" y="-229.8" font-family="Times,serif" font-size="14.00">UserRepository </text>
</g>
<!-- UserService  -->
<g id="node2" class="node">
<title>UserService </title>
<polygon fill="#fb8072" stroke="black" points="216.9,-252 129.1,-252 129.1,-216 216.9,-216 216.9,-252"/>
<text text-anchor="middle" x="173" y="-229.8" font-family="Times,serif" font-size="14.00">UserService </text>
</g>
<!-- UserModule -->
<g id="node3" class="node">
<title>UserModule</title>
<polygon fill="#8dd3c7" stroke="black" points="234.98,-187 231.98,-191 210.98,-191 207.98,-187 149.02,-187 149.02,-151 234.98,-151 234.98,-187"/>
<text text-anchor="middle" x="192" y="-164.8" font-family="Times,serif" font-size="14.00">UserModule</text>
</g>
<!-- UserModule&#45;&gt;UserRepository  -->
<g id="edge1" class="edge">
<title>UserModule&#45;&gt;UserRepository </title>
<path fill="none" stroke="black" stroke-dasharray="5,2" d="M235.3,-169C237.81,-169 239.34,-169 239.34,-169 239.34,-169 239.34,-205.89 239.34,-205.89"/>
<polygon fill="black" stroke="black" points="235.84,-205.89 239.34,-215.89 242.84,-205.89 235.84,-205.89"/>
</g>
<!-- UserModule&#45;&gt;UserService  -->
<g id="edge2" class="edge">
<title>UserModule&#45;&gt;UserService </title>
<path fill="none" stroke="black" stroke-dasharray="5,2" d="M182.98,-187.11C182.98,-187.11 182.98,-205.99 182.98,-205.99"/>
<polygon fill="black" stroke="black" points="179.48,-205.99 182.98,-215.99 186.48,-205.99 179.48,-205.99"/>
</g>
<!-- UserRepository -->
<g id="node4" class="node">
<title>UserRepository</title>
<ellipse fill="#fdb462" stroke="black" cx="315" cy="-104" rx="71.79" ry="18"/>
<text text-anchor="middle" x="315" y="-99.8" font-family="Times,serif" font-size="14.00">UserRepository</text>
</g>
<!-- UserRepository&#45;&gt;UserModule -->
<g id="edge3" class="edge">
<title>UserRepository&#45;&gt;UserModule</title>
<path fill="none" stroke="black" d="M243,-104C235.25,-104 230.1,-104 230.1,-104 230.1,-104 230.1,-140.89 230.1,-140.89"/>
<polygon fill="black" stroke="black" points="226.6,-140.89 230.1,-150.89 233.6,-140.89 226.6,-140.89"/>
</g>
<!-- UserService -->
<g id="node5" class="node">
<title>UserService</title>
<ellipse fill="#fdb462" stroke="black" cx="167" cy="-104" rx="58.44" ry="18"/>
<text text-anchor="middle" x="167" y="-99.8" font-family="Times,serif" font-size="14.00">UserService</text>
</g>
<!-- UserService&#45;&gt;UserModule -->
<g id="edge4" class="edge">
<title>UserService&#45;&gt;UserModule</title>
<path fill="none" stroke="black" d="M187.12,-121.08C187.12,-121.08 187.12,-140.9 187.12,-140.9"/>
<polygon fill="black" stroke="black" points="183.62,-140.9 187.12,-150.9 190.62,-140.9 183.62,-140.9"/>
</g>
</g>
</svg>
