<?xml version="1.0" encoding="UTF-8" standalone="no"?>
<!DOCTYPE svg PUBLIC "-//W3C//DTD SVG 1.1//EN"
 "http://www.w3.org/Graphics/SVG/1.1/DTD/svg11.dtd">
<!-- Generated by graphviz version 2.47.0 (20210316.0004)
 -->
<!-- Title: dependencies Pages: 1 -->
<svg width="704pt" height="284pt"
 viewBox="0.00 0.00 704.00 284.00" xmlns="http://www.w3.org/2000/svg" xmlns:xlink="http://www.w3.org/1999/xlink">
<g id="graph0" class="graph" transform="scale(1 1) rotate(0) translate(4 280)">
<title>dependencies</title>
<polygon fill="white" stroke="transparent" points="-4,4 -4,-280 700,-280 700,4 -4,4"/>
<text text-anchor="start" x="327.01" y="-42.4" font-family="Times-12" font-weight="bold" font-size="14.00">Legend</text>
<polygon fill="#ffffb3" stroke="transparent" points="114,-10 114,-30 134,-30 134,-10 114,-10"/>
<text text-anchor="start" x="137.63" y="-15.4" font-family="Times-12" font-size="14.00"> &#160;Declarations</text>
<polygon fill="#8dd3c7" stroke="transparent" points="227,-10 227,-30 247,-30 247,-10 227,-10"/>
<text text-anchor="start" x="250.73" y="-15.4" font-family="Times-12" font-size="14.00"> &#160;Module</text>
<polygon fill="#80b1d3" stroke="transparent" points="313,-10 313,-30 333,-30 333,-10 313,-10"/>
<text text-anchor="start" x="336.78" y="-15.4" font-family="Times-12" font-size="14.00"> &#160;Bootstrap</text>
<polygon fill="#fdb462" stroke="transparent" points="410,-10 410,-30 430,-30 430,-10 410,-10"/>
<text text-anchor="start" x="433.67" y="-15.4" font-family="Times-12" font-size="14.00"> &#160;Providers</text>
<polygon fill="#fb8072" stroke="transparent" points="506,-10 506,-30 526,-30 526,-10 506,-10"/>
<text text-anchor="start" x="529.73" y="-15.4" font-family="Times-12" font-size="14.00"> &#160;Exports</text>
<g id="clust1" class="cluster">
<title>cluster_PermissionModule</title>
<polygon fill="none" stroke="black" stroke-dasharray="1,5" points="8,-70 8,-268 688,-268 688,-70 8,-70"/>
</g>
<g id="clust6" class="cluster">
<title>cluster_PermissionModule_providers</title>
<polygon fill="none" stroke="black" points="16,-78 16,-130 680,-130 680,-78 16,-78"/>
</g>
<g id="clust4" class="cluster">
<title>cluster_PermissionModule_exports</title>
<polygon fill="none" stroke="black" points="28,-208 28,-260 668,-260 668,-208 28,-208"/>
</g>
<!-- PermissionCacheService  -->
<g id="node1" class="node">
<title>PermissionCacheService </title>
<polygon fill="#fb8072" stroke="black" points="660.18,-252 501.82,-252 501.82,-216 660.18,-216 660.18,-252"/>
<text text-anchor="middle" x="581" y="-229.8" font-family="Times,serif" font-size="14.00">PermissionCacheService </text>
</g>
<!-- PermissionGuard  -->
<g id="node2" class="node">
<title>PermissionGuard </title>
<polygon fill="#fb8072" stroke="black" points="483.2,-252 366.8,-252 366.8,-216 483.2,-216 483.2,-252"/>
<text text-anchor="middle" x="425" y="-229.8" font-family="Times,serif" font-size="14.00">PermissionGuard </text>
</g>
<!-- PermissionRegistryService  -->
<g id="node3" class="node">
<title>PermissionRegistryService </title>
<polygon fill="#fb8072" stroke="black" points="348.63,-252 177.37,-252 177.37,-216 348.63,-216 348.63,-252"/>
<text text-anchor="middle" x="263" y="-229.8" font-family="Times,serif" font-size="14.00">PermissionRegistryService </text>
</g>
<!-- PermissionService  -->
<g id="node4" class="node">
<title>PermissionService </title>
<polygon fill="#fb8072" stroke="black" points="159.7,-252 36.3,-252 36.3,-216 159.7,-216 159.7,-252"/>
<text text-anchor="middle" x="98" y="-229.8" font-family="Times,serif" font-size="14.00">PermissionService </text>
</g>
<!-- PermissionModule -->
<g id="node5" class="node">
<title>PermissionModule</title>
<polygon fill="#8dd3c7" stroke="black" points="384.77,-187 381.77,-191 360.77,-191 357.77,-187 263.23,-187 263.23,-151 384.77,-151 384.77,-187"/>
<text text-anchor="middle" x="324" y="-164.8" font-family="Times,serif" font-size="14.00">PermissionModule</text>
</g>
<!-- PermissionModule&#45;&gt;PermissionCacheService  -->
<g id="edge1" class="edge">
<title>PermissionModule&#45;&gt;PermissionCacheService </title>
<path fill="none" stroke="black" stroke-dasharray="5,2" d="M384.91,-175C460.9,-175 581,-175 581,-175 581,-175 581,-205.98 581,-205.98"/>
<polygon fill="black" stroke="black" points="577.5,-205.98 581,-215.98 584.5,-205.98 577.5,-205.98"/>
</g>
<!-- PermissionModule&#45;&gt;PermissionGuard  -->
<g id="edge2" class="edge">
<title>PermissionModule&#45;&gt;PermissionGuard </title>
<path fill="none" stroke="black" stroke-dasharray="5,2" d="M375.77,-187.11C375.77,-187.11 375.77,-205.99 375.77,-205.99"/>
<polygon fill="black" stroke="black" points="372.27,-205.99 375.77,-215.99 379.27,-205.99 372.27,-205.99"/>
</g>
<!-- PermissionModule&#45;&gt;PermissionRegistryService  -->
<g id="edge3" class="edge">
<title>PermissionModule&#45;&gt;PermissionRegistryService </title>
<path fill="none" stroke="black" stroke-dasharray="5,2" d="M305.84,-187.11C305.84,-187.11 305.84,-205.99 305.84,-205.99"/>
<polygon fill="black" stroke="black" points="302.34,-205.99 305.84,-215.99 309.34,-205.99 302.34,-205.99"/>
</g>
<!-- PermissionModule&#45;&gt;PermissionService  -->
<g id="edge4" class="edge">
<title>PermissionModule&#45;&gt;PermissionService </title>
<path fill="none" stroke="black" stroke-dasharray="5,2" d="M263.14,-175C196.2,-175 98,-175 98,-175 98,-175 98,-205.98 98,-205.98"/>
<polygon fill="black" stroke="black" points="94.5,-205.98 98,-215.98 101.5,-205.98 94.5,-205.98"/>
</g>
<!-- PermissionCacheService -->
<g id="node6" class="node">
<title>PermissionCacheService</title>
<ellipse fill="#fdb462" stroke="black" cx="565" cy="-104" rx="107.08" ry="18"/>
<text text-anchor="middle" x="565" y="-99.8" font-family="Times,serif" font-size="14.00">PermissionCacheService</text>
</g>
<!-- PermissionCacheService&#45;&gt;PermissionModule -->
<g id="edge5" class="edge">
<title>PermissionCacheService&#45;&gt;PermissionModule</title>
<path fill="none" stroke="black" d="M470.66,-112.71C470.66,-129.12 470.66,-163 470.66,-163 470.66,-163 394.92,-163 394.92,-163"/>
<polygon fill="black" stroke="black" points="394.92,-159.5 384.92,-163 394.92,-166.5 394.92,-159.5"/>
</g>
<!-- PermissionRegistryService -->
<g id="node7" class="node">
<title>PermissionRegistryService</title>
<ellipse fill="#fdb462" stroke="black" cx="324" cy="-104" rx="115.76" ry="18"/>
<text text-anchor="middle" x="324" y="-99.8" font-family="Times,serif" font-size="14.00">PermissionRegistryService</text>
</g>
<!-- PermissionRegistryService&#45;&gt;PermissionModule -->
<g id="edge6" class="edge">
<title>PermissionRegistryService&#45;&gt;PermissionModule</title>
<path fill="none" stroke="black" d="M324,-122.11C324,-122.11 324,-140.99 324,-140.99"/>
<polygon fill="black" stroke="black" points="320.5,-140.99 324,-150.99 327.5,-140.99 320.5,-140.99"/>
</g>
<!-- PermissionService -->
<g id="node8" class="node">
<title>PermissionService</title>
<ellipse fill="#fdb462" stroke="black" cx="107" cy="-104" rx="82.82" ry="18"/>
<text text-anchor="middle" x="107" y="-99.8" font-family="Times,serif" font-size="14.00">PermissionService</text>
</g>
<!-- PermissionService&#45;&gt;PermissionModule -->
<g id="edge7" class="edge">
<title>PermissionService&#45;&gt;PermissionModule</title>
<path fill="none" stroke="black" d="M183.67,-111.23C183.67,-126.99 183.67,-163 183.67,-163 183.67,-163 252.86,-163 252.86,-163"/>
<polygon fill="black" stroke="black" points="252.86,-166.5 262.86,-163 252.86,-159.5 252.86,-166.5"/>
</g>
</g>
</svg>
